<?xml version="1.0" encoding="UTF-8"?>
<svg width="30px" height="27px" viewBox="0 0 30 27" version="1.1" xmlns="http://www.w3.org/2000/svg" xmlns:xlink="http://www.w3.org/1999/xlink">
    <!-- Generator: Sketch 53.2 (72643) - https://sketchapp.com -->
    <title>icons / heart solid</title>
    <desc>Created with Sketch.</desc>
    <defs>
        <path d="M26.5963396,1.7940361 C23.4610118,-0.917665532 18.7724023,-0.467663322 15.8614374,2.58300101 L14.7281171,3.77521465 L13.5947968,2.58884519 C11.2476156,0.122599317 6.51298301,-1.36182356 2.85989465,1.7940361 C-0.752923433,4.92651901 -0.94276897,10.5486245 2.29035804,13.9382516 L13.42221,25.6149323 C13.7788894,25.9889601 14.2506268,26.1818182 14.7223642,26.1818182 C15.1941016,26.1818182 15.665839,25.9948043 16.0225185,25.6149323 L27.1543704,13.9382516 C30.3990032,10.5486245 30.2091577,4.92651901 26.5963396,1.7940361 Z M25.8427103,12.6408426 L14.7511287,24.3175233 L3.6135239,12.6408426 C1.40441221,10.3265455 0.944180604,5.9141862 4.05649682,3.22001712 C7.20908331,0.484938758 10.9139477,2.46611732 12.2716309,3.89209835 L14.7281171,6.46938373 L17.1846033,3.89209835 C18.519275,2.48949406 22.2586567,0.502471312 25.3997374,3.22001712 C28.5063008,5.90834201 28.051822,10.3207013 25.8427103,12.6408426 Z" id="path-1"></path>
    </defs>
    <g id="Mobile" stroke="none" stroke-width="1" fill="none" fill-rule="evenodd">
        <g id="Client-/-active-job---review" transform="translate(-67.000000, -279.000000)">
            <g id="Group" transform="translate(64.000000, 276.000000)">
                <g id="icons-/-heart-outline">
                    <g id="🌈-color-/-black-2" transform="translate(3.272727, 3.272727)">
                        <mask id="mask-2" fill="white">
                            <use xlink:href="#path-1"></use>
                        </mask>
                        <use id="Mask" fill="#000000" fill-rule="nonzero" xlink:href="#path-1"></use>
                        <g mask="url(#mask-2)" fill="#1BAAAA">
                            <g transform="translate(-18.000000, -19.636364)">
                                <rect x="0" y="0" width="65.4545455" height="65.4545455"></rect>
                            </g>
                        </g>
                    </g>
                </g>
            </g>
        </g>
    </g>
</svg>