<svg height='100px' width='100px'  fill="rgb(18, 179, 179)" xmlns:x="http://ns.adobe.com/Extensibility/1.0/" xmlns:i="http://ns.adobe.com/AdobeIllustrator/10.0/" xmlns:graph="http://ns.adobe.com/Graphs/1.0/" xmlns="http://www.w3.org/2000/svg" xmlns:xlink="http://www.w3.org/1999/xlink" version="1.1" x="0px" y="0px" viewBox="0 0 100 100" style="enable-background:new 0 0 100 100;" xml:space="preserve"><g><g i:extraneous="self"><g><path d="M5273.1,2400.1v-2c0-2.8-5-4-9.7-4s-9.7,1.3-9.7,4v2c0,1.8,0.7,3.6,2,4.9l5,4.9c0.3,0.3,0.4,0.6,0.4,1v6.4     c0,0.4,0.2,0.7,0.6,0.8l2.9,0.9c0.5,0.1,1-0.2,1-0.8v-7.2c0-0.4,0.2-0.7,0.4-1l5.1-5C5272.4,2403.7,5273.1,2401.9,5273.1,2400.1z      M5263.4,2400c-4.8,0-7.4-1.3-7.5-1.8v0c0.1-0.5,2.7-1.8,7.5-1.8c4.8,0,7.3,1.3,7.5,1.8C5270.7,2398.7,5268.2,2400,5263.4,2400z"></path><path d="M5268.4,2410.3c-0.6,0-1,0.4-1,1c0,0.6,0.4,1,1,1h4.3c0.6,0,1-0.4,1-1c0-0.6-0.4-1-1-1H5268.4z"></path><path d="M5272.7,2413.7h-4.3c-0.6,0-1,0.4-1,1c0,0.6,0.4,1,1,1h4.3c0.6,0,1-0.4,1-1C5273.7,2414.1,5273.3,2413.7,5272.7,2413.7z"></path><path d="M5272.7,2417h-4.3c-0.6,0-1,0.4-1,1c0,0.6,0.4,1,1,1h4.3c0.6,0,1-0.4,1-1C5273.7,2417.5,5273.3,2417,5272.7,2417z"></path></g><g><path d="M24.5,73l-0.1-0.5c-0.2-0.8-0.9-1.4-1.7-1.4H13c-0.8,0-1.5,0.6-1.7,1.4L11.2,73c-1.6,6.5-4.4,12.5-8.3,17.9     c-0.3,0.5-0.4,1-0.3,1.6c0.2,0.6,0.6,1,1.1,1.2c1,0.4,2.1,0.7,3.2,1c2.9-3.9,5.1-8.3,6.5-13l0.1-0.4c0.3-1,1.4-1.6,2.4-1.3     c1,0.3,1.6,1.3,1.3,2.4L17,82.7c-1.3,4.6-3.4,8.9-6.1,12.8c2.3,0.4,4.6,0.6,6.9,0.6c4.8,0,9.6-0.8,14.1-2.4     c0.5-0.2,0.9-0.6,1.1-1.2c0.2-0.5,0.1-1.1-0.3-1.6C28.9,85.5,26.1,79.5,24.5,73z"></path><path d="M12.9,68.3h9.8c1,0,1.8-0.8,1.8-1.8v-2.4c0-1-0.8-1.8-1.8-1.8h-2v-36c0-1.6-1.3-2.9-2.9-2.9c-1.6,0-2.9,1.3-2.9,2.9v36     h-2c-1,0-1.8,0.8-1.8,1.8v2.4C11.2,67.5,12,68.3,12.9,68.3z"></path><path d="M73.7,56.3c0.9,0,1.8-0.3,2.6-0.8c2.1-1.4,2.6-4.3,1.2-6.3L65.6,31.7c-2.1-3.1-5.5-4.9-9.2-4.9h-8.2     c-3.1,0-6.2,1.3-8.3,3.7l-7.3,8h-8.4v9.1h10.4c1.3,0,2.5-0.5,3.4-1.5l3.2-3.5v48.7c0,2.5,2,4.6,4.6,4.6c2.5,0,4.6-2.1,4.6-4.6     V63.1h4.4v28.3c0,2.5,2,4.6,4.6,4.6c2.5,0,4.6-2.1,4.6-4.6v-46l6.1,8.9C70.8,55.6,72.3,56.3,73.7,56.3z"></path><circle cx="52.6" cy="14.2" r="10.1"></circle><path d="M95.6,76h-1.2v-0.1c0-6.1-5-11.1-11.1-11.1c-6.1,0-11.1,5-11.1,11.1V76h-1.2c-1,0-1.9,0.9-1.9,1.9s0.8,1.9,1.9,1.9h0.6     l1.3,14.1c0.1,1.1,1.1,2,2.2,2h16.4c1.2,0,2.1-0.9,2.2-2L95,79.8h0.6c1,0,1.9-0.9,1.9-1.9S96.6,76,95.6,76z M76,75.9     c0-4,3.3-7.3,7.3-7.3c4,0,7.3,3.3,7.3,7.3V76L76,75.9L76,75.9z"></path></g></g></g></svg>