<svg height='100px' width='100px'  fill="rgb(18, 179, 179)" xmlns="http://www.w3.org/2000/svg" viewBox="0 0 64 64" x="0px" y="0px"><title>ball, shoes, soccer, sport,</title><g><path d="M60.92,35.61a12.48,12.48,0,0,0-6.47-6.3Q52,28.42,49.91,27.5l-7.27,7.21a1,1,0,0,1-.71.29,1,1,0,0,1-.71-.3,1,1,0,0,1,0-1.41L48,26.62c-1.44-.68-2.79-1.36-4.07-2.06L34.06,34.69a1,1,0,0,1-.72.31,1,1,0,0,1-.71-1.7l9.44-9.75c-1.13-.65-2.21-1.3-3.27-1.95L25.46,34.71a1,1,0,0,1-.7.29,1,1,0,0,1-.71-.3,1,1,0,0,1,0-1.41l13-12.78L36.3,20l-3.44-2.12c-4.33-2.61-7.09,0-9.32,2.13-1.4,1.34-2.72,2.59-4.29,2.68-4.15.23-5.28-.79-7.73-3l-.41-.37a4.88,4.88,0,0,0-5.33-.81A6.84,6.84,0,0,0,2,25V38c0,2.42,1.25,7,6,7H58.1l.1,0a4.94,4.94,0,0,0,3.16-2.44C62.29,40.79,62.14,38.45,60.92,35.61ZM55,41H10a1,1,0,0,1,0-2H55a1,1,0,0,1,0,2Z"></path></g></svg>