<svg height='100px' width='100px'  fill="rgb(18, 179, 179)" xmlns:x="http://ns.adobe.com/Extensibility/1.0/" xmlns:i="http://ns.adobe.com/AdobeIllustrator/10.0/" xmlns:graph="http://ns.adobe.com/Graphs/1.0/" xmlns="http://www.w3.org/2000/svg" xmlns:xlink="http://www.w3.org/1999/xlink" version="1.1" x="0px" y="0px" viewBox="0 0 100 100" style="enable-background:new 0 0 100 100;" xml:space="preserve"><g><g i:extraneous="self"><g><path d="M83.5,55.6H60.2c-0.7,0-1.3,0.8-1.3,1.7v38.2c0,1,0.6,1.7,1.3,1.7h23.3c0.7,0,1.3-0.8,1.3-1.7V57.3     C84.8,56.4,84.2,55.6,83.5,55.6z"></path><path d="M68.2,43c0.3-0.1,0.5-0.5,0.4-0.8l0,0c-0.2-0.6-0.4-1.2-0.3-1.7c0-0.5,0.2-1,0.5-1.6c0.1-0.3,0.3-0.6,0.4-1     c0.1-0.4,0.3-0.8,0.3-1.3c0-0.5,0-0.9-0.2-1.3c-0.1-0.2-0.2-0.4-0.3-0.6c-0.1-0.2-0.2-0.3-0.4-0.6C68.4,34,68.2,33.9,68,34     c-0.3,0.1-0.5,0.4-0.5,0.7l0.1,0.2c0,0.1,0.1,0.2,0.1,0.4c0,0.1,0.1,0.3,0.1,0.4c0,0.3,0,0.5,0,0.8c-0.1,0.2-0.1,0.5-0.3,0.7     l-0.4,1c-0.1,0.3-0.3,0.7-0.4,1.1c-0.1,0.4-0.1,0.9-0.1,1.3c0.1,0.9,0.5,1.7,1,2.3C67.7,43,68,43.1,68.2,43z"></path><path d="M72.6,43c0.3-0.1,0.5-0.5,0.4-0.8l0,0c-0.2-0.6-0.4-1.2-0.3-1.7c0-0.5,0.2-1,0.5-1.6c0.1-0.3,0.3-0.6,0.4-1     c0.1-0.4,0.3-0.8,0.3-1.3c0-0.5,0-0.9-0.2-1.3c-0.1-0.2-0.2-0.4-0.3-0.6c-0.1-0.2-0.2-0.3-0.4-0.6c-0.1-0.2-0.4-0.2-0.6-0.2     c-0.3,0.1-0.5,0.4-0.5,0.7l0.1,0.2c0,0.1,0.1,0.2,0.1,0.4c0,0.1,0.1,0.3,0.1,0.4c0,0.3,0,0.5,0,0.8c-0.1,0.2-0.1,0.5-0.3,0.7     l-0.4,1c-0.1,0.3-0.3,0.7-0.4,1.1c-0.1,0.4-0.1,0.9-0.1,1.3c0.1,0.9,0.5,1.7,1,2.3C72,43,72.3,43.1,72.6,43z"></path><path d="M76.9,43c0.3-0.1,0.5-0.5,0.4-0.8l0,0c-0.2-0.6-0.4-1.2-0.3-1.7c0-0.5,0.2-1,0.5-1.6c0.1-0.3,0.3-0.6,0.4-1     c0.1-0.4,0.3-0.8,0.3-1.3c0-0.5,0-0.9-0.2-1.3c-0.1-0.2-0.2-0.4-0.3-0.6c-0.1-0.2-0.2-0.3-0.4-0.6c-0.1-0.2-0.4-0.2-0.6-0.2     c-0.3,0.1-0.5,0.4-0.5,0.7l0.1,0.2c0,0.1,0.1,0.2,0.1,0.4c0,0.1,0.1,0.3,0.1,0.4c0,0.3,0,0.5,0,0.8c-0.1,0.2-0.1,0.5-0.3,0.7     l-0.4,1c-0.1,0.3-0.3,0.7-0.4,1.1c-0.1,0.4-0.1,0.9-0.1,1.3c0.1,0.9,0.5,1.7,1,2.3C76.3,43,76.6,43.1,76.9,43z"></path><path d="M63.9,51.8c0.4,0.8,1.2,1.4,2,1.4h11.5c0.9,0,1.7-0.5,2-1.4l1.8-4c0.2-0.5,0.2-1.2-0.1-1.6c-0.3-0.5-0.9-0.8-1.4-0.8     H57.2c0.1,0.7,0.1,1.4,0,2.1c0,0.2-0.1,0.4-0.1,0.5h5.3L63.9,51.8z"></path><path d="M51.6,42l-9.3-2.7l-6.5-13.2c-0.1-0.3-0.5-1-1.6-2.1c-1.7-1.6-4-2.5-6.3-2.4c-2.2,0.1-4.3,1.2-5.8,2.9     c-0.5,0.6-1,1.7-1.2,2.4l-5.5,21.6c-0.3,1.3-0.2,2.6,0.5,3.8L25,69.7c0.2,0.4,0.3,0.8,0.2,1.2L22,91.1c-0.4,2.7,1.1,5.5,3.7,6.2     c0.5,0.2,1,0.2,1.5,0.2c2.5,0,4.7-1.8,5.2-4.3l4.4-22.8c0.2-0.9,0.1-1.9-0.2-2.8l-5-14.3c-0.1-0.4-0.2-0.8-0.1-1.2l2.2-9.8     l1.4,2.8c0.6,1.1,1.5,1.9,2.7,2.3l11.4,3.3c0.4,0.1,0.8,0.2,1.2,0.2c2.1,0,4-1.5,4.4-3.7C55.4,44.8,53.8,42.6,51.6,42z"></path><circle cx="33.9" cy="11.3" r="8.8"></circle></g></g></g></svg>