<svg height='100px' width='100px'  fill="#000000" xmlns="http://www.w3.org/2000/svg" viewBox="0 0 96 96" x="0px" y="0px"><title>jobs</title><circle cx="34.22" cy="19" r="7"></circle><path d="M37.6,67.12a20.8,20.8,0,0,1-.38-4,21.29,21.29,0,0,1,5.5-14.31V40a33.41,33.41,0,0,0,4.52,5,21.14,21.14,0,0,1,6.35-2.67C50,40.1,46.74,36.06,43.48,30h0A3.54,3.54,0,0,0,40.3,28h-14a5.12,5.12,0,0,0-.54.1c-2.65.58-5,2.6-6.71,5.8a22.78,22.78,0,0,0-.08,20,3.13,3.13,0,0,0,4.6,1.21,3,3,0,0,0,.8-3.84,16.87,16.87,0,0,1,0-14.61,8.14,8.14,0,0,1,1.4-1.95V79.82A4.12,4.12,0,0,0,29.33,84a4,4,0,0,0,4.39-4V53.5h1V79.82A4.12,4.12,0,0,0,38.33,84a4,4,0,0,0,4.39-4V77.42a21.2,21.2,0,0,1-4.59-8.14A20.43,20.43,0,0,1,37.6,67.12Z"></path><path d="M55.56,47.4a14.59,14.59,0,0,0-3.17,1.06,3,3,0,0,0,.78.11A3.05,3.05,0,0,0,55.56,47.4Z"></path><path d="M58.55,42.25a20.83,20.83,0,0,0-10.93,3.1,21.25,21.25,0,0,0-4.9,4.21,20.8,20.8,0,0,0-5,13.56,20.07,20.07,0,0,0,.37,3.9,18.57,18.57,0,0,0,.52,2.11A20.88,20.88,0,0,0,51.08,82.61a20.77,20.77,0,0,0,14.94,0A20.82,20.82,0,0,0,78.47,69.13,16.66,16.66,0,0,0,79,67a20.07,20.07,0,0,0,.37-3.9A20.85,20.85,0,0,0,58.55,42.25ZM73.7,67.14a16.33,16.33,0,0,1-9.27,11.32,2.21,2.21,0,0,1-2.94-1.24,8.67,8.67,0,0,1-.28-1H55.88a8.67,8.67,0,0,1-.28,1,2.13,2.13,0,0,1-2.05,1.43,2.24,2.24,0,0,1-.9-.19,16.35,16.35,0,0,1-9.27-11.32,2.13,2.13,0,0,1,1.39-2.5L45.31,59a1.57,1.57,0,0,1-1.23-2.13,16.23,16.23,0,0,1,7.69-8.65,14.82,14.82,0,0,1,6.78-1.64A15.64,15.64,0,0,1,73,56.87,1.57,1.57,0,0,1,71.77,59l.54,5.64A2.13,2.13,0,0,1,73.7,67.14Z"></path><path d="M58.55,55.5a24.19,24.19,0,0,0-12.21,3.28l-.54,5.68a6.7,6.7,0,0,1,.9,0,9.28,9.28,0,0,1,6.66,2.83,9.71,9.71,0,0,1,2.76,6.82,8.47,8.47,0,0,1-.07,1.13h5A8.47,8.47,0,0,1,61,74.06a9.54,9.54,0,0,1,9.42-9.65,6.55,6.55,0,0,1,.89,0l-.54-5.68A24.14,24.14,0,0,0,58.55,55.5Zm1.15,8.84a8.71,8.71,0,0,1-1.16.07,8.46,8.46,0,0,1-1.15-.07,4.66,4.66,0,0,1-2.56-.93.88.88,0,0,1-.32-.64c0-.8,1.42-1.47,3.3-1.61.24,0,.48,0,.73,0s.51,0,.75,0a5.16,5.16,0,0,1,3,1,.88.88,0,0,1,.32.64C62.57,63.52,61.36,64.14,59.7,64.34Z"></path></svg>