<?xml version="1.0" encoding="UTF-8"?>
<svg width="36px" height="26px" viewBox="0 0 36 26" version="1.1" xmlns="http://www.w3.org/2000/svg" xmlns:xlink="http://www.w3.org/1999/xlink">
    <!-- Generator: Sketch 53.2 (72643) - https://sketchapp.com -->
    <title>Shape</title>
    <desc>Created with Sketch.</desc>
    <g id="Mobile" stroke="none" stroke-width="1" fill="none" fill-rule="evenodd">
        <g id="Client-/-services" transform="translate(-35.000000, -842.000000)" fill="#12B3B3" fill-rule="nonzero">
            <g id="car-regular-copy-2" transform="translate(35.000000, 842.000000)">
                <path d="M35.1553391,8.66734375 L31.4843185,8.66734375 L29.2793155,3.39421875 C28.4229081,1.34333333 26.357124,0 24.0621209,0 L11.9374168,0 C9.6424137,0 7.57662963,1.34333333 6.71951908,3.39354167 L4.51451607,8.66666667 L0.844198564,8.66666667 C0.29505719,8.66666667 -0.107833985,9.16364583 0.0257599475,9.67619792 L0.447635523,11.3011979 C0.54173854,11.6627261 0.879026755,11.916368 1.26607414,11.9166667 L2.0613096,11.9166667 C1.47912131,12.8754167 1.12474582,13.9756771 1.12474582,15.1659896 L1.12474582,24.375 C1.12474582,25.2721354 1.88060623,26 2.81224813,26 L3.93724966,26 C4.86889156,26 5.62475196,25.2721354 5.62475196,24.375 L5.62475196,22.75 L30.3747857,22.75 L30.3747857,24.375 C30.3747857,25.2721354 31.1306461,26 32.062288,26 L33.1872896,26 C34.1189315,26 34.8747919,25.2721354 34.8747919,24.375 L34.8747919,15.1666667 C34.8747919,13.9756771 34.5204164,12.8754167 33.9389312,11.9173437 L34.7341667,11.9173437 C35.1215891,11.9173437 35.4590896,11.6634375 35.5526053,11.301875 L35.9744809,9.676875 C36.1073717,9.16364583 35.7044805,8.66734375 35.1553391,8.66734375 Z M9.85053898,4.60755208 C10.1950707,3.78286458 11.0142124,3.25 11.9374168,3.25 L24.0621209,3.25 C24.9853253,3.25 25.804467,3.78286458 26.1489987,4.60755208 L27.8456417,8.66598958 L8.15389604,8.66598958 L9.85053898,4.60755208 Z M31.4997873,18.4166667 C31.4997873,19.0138542 30.9949428,19.5 30.3747857,19.5 L5.62475196,19.5 C5.00459487,19.5 4.49975043,19.0138542 4.49975043,18.4166667 L4.49975043,15.1666667 C4.49975043,13.3744271 6.01358062,11.9166667 7.87475503,11.9166667 L28.1247827,11.9166667 C29.9859571,11.9166667 31.4997873,13.3744271 31.4997873,15.1666667 L31.4997873,18.4166667 Z M8.99975657,13.5409896 C7.64975473,13.5409896 6.7497535,14.4049479 6.7497535,15.7015625 C6.7497535,16.9981771 7.64975473,17.8621354 8.99975657,17.8621354 C10.3497584,17.8621354 12.3747612,18.078125 12.3747612,16.7815104 C12.3747612,15.4855729 10.3497584,13.5409896 8.99975657,13.5409896 L8.99975657,13.5409896 Z M26.9997811,13.5409896 C25.6497793,13.5409896 23.6247765,15.4855729 23.6247765,16.7815104 C23.6247765,18.078125 25.6497793,17.8621354 26.9997811,17.8621354 C28.349783,17.8621354 29.2497842,16.9981771 29.2497842,15.7015625 C29.2497842,14.405625 28.349783,13.5409896 26.9997811,13.5409896 L26.9997811,13.5409896 Z" id="Shape"></path>
            </g>
        </g>
    </g>
</svg>