<svg height='100px' width='100px'  fill="#000000" xmlns:dc="http://purl.org/dc/elements/1.1/" xmlns:cc="http://creativecommons.org/ns#" xmlns:rdf="http://www.w3.org/1999/02/22-rdf-syntax-ns#" xmlns:svg="http://www.w3.org/2000/svg" xmlns="http://www.w3.org/2000/svg" xmlns:sodipodi="http://sodipodi.sourceforge.net/DTD/sodipodi-0.dtd" xmlns:inkscape="http://www.inkscape.org/namespaces/inkscape" viewBox="0 0 8.4666665 8.4666669" version="1.1" x="0px" y="0px"><g transform="translate(0,-288.53332)"><path d="m 7.6725371,291.31134 -1.0651067,0 c -0.3653102,0 -0.6614583,0.29615 -0.6614583,0.66146 l 0,3.96875 c 0,0.21919 0.1776942,0.39687 0.396875,0.39687 l 1.5942734,0 c 0.2191808,0 0.396875,-0.17768 0.396875,-0.39687 l 0,-3.96875 c 0,-0.36531 -0.2961482,-0.66146 -0.6614584,-0.66146 z" style="opacity:1;fill:#000000;fill-opacity:1;stroke:none;stroke-width:1;stroke-linecap:round;stroke-linejoin:round;stroke-miterlimit:4;stroke-dasharray:none;stroke-opacity:1"></path><path d="m 7.4045671,289.19468 -1.5875,0 c -0.073052,0 -0.1322917,0.0592 -0.1322917,0.13229 l 0,0.19843 c 0,0.0731 0.05924,0.1323 0.1322917,0.1323 l 0.5071269,0 c 0.1001712,0 0.1976702,0.0325 0.2778125,0.0926 l 0.070538,0.0529 c 0.045799,0.0344 0.1014942,0.0529 0.15875,0.0529 l 0.5732727,0 c 0.073051,0 0.1322917,-0.0592 0.1322917,-0.13229 l 0,-0.39687 c 0,-0.0731 -0.05924,-0.13229 -0.1322917,-0.13229 z" style="" fill="#000000" fill-rule="evenodd" stroke="none"></path><path d="m 7.6691505,291.04676 0,-0.66146 c 0,-0.14613 -0.118454,-0.26459 -0.2645834,-0.26459 l -0.5291667,0 c -0.1461293,0 -0.2645833,0.11846 -0.2645833,0.26459 l 0,0.66146" style="" display="inline" fill="#000000" fill-rule="evenodd" stroke="none"></path><path style="opacity:1;fill:#000000;fill-opacity:1;stroke:none;stroke-width:0.99999994;stroke-linecap:round;stroke-linejoin:round;stroke-miterlimit:4;stroke-dasharray:none;stroke-opacity:1" d="m 0.25396423,289.91678 2.66787317,0 c 0.067178,0 0.1212586,0.0516 0.1212586,0.11575 l 0,0.69453 c 0,0.0641 -0.054081,0.11576 -0.1212586,0.11576 l -2.66787317,0 c -0.0672042,0 -0.121285,-0.0516 -0.121285,-0.11576 l 0,-0.69453 c 0,-0.0641 0.0540808,-0.11575 0.121285,-0.11575 z"></path><path style="color:#000000;font-style:normal;font-variant:normal;font-weight:normal;font-stretch:normal;font-size:medium;line-height:normal;font-family:sans-serif;text-indent:0;text-align:start;text-decoration:none;text-decoration-line:none;text-decoration-style:solid;text-decoration-color:#000000;letter-spacing:normal;word-spacing:normal;text-transform:none;direction:ltr;writing-mode:lr-tb;baseline-shift:baseline;text-anchor:start;white-space:normal;clip-rule:nonzero;display:inline;overflow:visible;visibility:visible;opacity:1;isolation:auto;mix-blend-mode:normal;color-interpolation:sRGB;color-interpolation-filters:linearRGB;solid-color:#000000;solid-opacity:1;fill:#000000;fill-opacity:1;fill-rule:evenodd;stroke:none;stroke-width:1px;stroke-linecap:butt;stroke-linejoin:miter;stroke-miterlimit:4;stroke-dasharray:none;stroke-dashoffset:0;stroke-opacity:1;color-rendering:auto;image-rendering:auto;shape-rendering:auto;text-rendering:auto;enable-background:accumulate" d="m 0.66880445,291.07475 0.59015315,0.78288 0,4.15015 c 0,0.18265 0.1480873,0.33073 0.3307292,0.33073 0.1826683,0 0.3307291,-0.14808 0.3307291,-0.33073 l 0,-4.15118 0.5865548,-0.78185 -0.3307291,0 -0.4754563,0.63355 -0.2226998,0 -0.4780227,-0.63355 z"></path><path style="opacity:1;fill:#000000;fill-opacity:1;stroke:none;stroke-width:1;stroke-linecap:butt;stroke-linejoin:miter;stroke-miterlimit:4;stroke-dasharray:none;stroke-opacity:1" d="m 4.6936727,294.88521 -0.00344,0.92688 c 0,0.29136 -0.2362465,0.52716 -0.5276586,0.52653 l -0.4622006,0 c -0.2914121,0 -0.5266267,-0.24446 -0.5266267,-0.53582 l 0.00344,-0.92687 z"></path><path style="opacity:1;fill:#000000;fill-opacity:1;stroke:none;stroke-width:1;stroke-linecap:round;stroke-linejoin:round;stroke-miterlimit:4;stroke-dasharray:none;stroke-opacity:1" d="m 3.2430416,292.17132 c -0.3431646,0 -0.5962386,0.31808 -0.5167577,0.64958 l 0.3870589,1.79056 1.6402051,0 0.3906573,-1.78024 c 0.079454,-0.33147 -0.1736196,-0.65009 -0.5167577,-0.65009 z m -0.072337,2.70473 0.00265,0.009 1.5208251,0 0.00265,-0.009 z"></path><path style="" d="m 5.2259085,290.8484 0,0.39687 c 0,0.36532 -0.2961481,0.66146 -0.6614583,0.66146 l -1.3890626,0 c -0.2191808,0 -0.396875,-0.17768 -0.396875,-0.39687 l 0,-1e-5 c 0.018256,-0.20092 0.1959504,-0.34899 0.396875,-0.33072 l 1.0767749,0 c 0.2053695,0 0.4079081,-0.0478 0.5916083,-0.13967 z" display="inline" fill="#000000" fill-rule="evenodd" stroke="none"></path></g></svg>