<svg height='100px' width='100px' fill="rgb(18, 179, 179)" xmlns="http://www.w3.org/2000/svg" xmlns:xlink="http://www.w3.org/1999/xlink" version="1.1" x="0px" y="0px" viewBox="0 0 100 100" enable-background="new 0 0 100 100" xml:space="preserve"><circle cx="42.983" cy="16.631" r="6.81"></circle><path d="M53.138,40.753L40.02,35.135l-0.769-5.34c1.166-2.37,0.814-5.312-1.11-7.341c-2.468-2.604-6.584-2.713-9.188-0.243  l-0.036,0.034c-2.333,1.93-12.856,11.774-13.676,32.881c-0.063,1.595,0.458,3.076,1.368,4.243v26.313c0,2.485,2.015,4.5,4.5,4.5  s4.5-2.015,4.5-4.5V60.589c1.523-1.133,2.543-2.916,2.622-4.96c0.258-6.636,1.68-11.625,3.313-15.27l0.481,1.809  c0.201,0.756,0.744,1.374,1.468,1.67l14.638,6c0.311,0.127,0.632,0.188,0.947,0.188c0.984,0,1.918-0.585,2.314-1.552  c0.048-0.118,0.077-0.238,0.106-0.358l-17.161-7.499L34.32,40.56l-1.028-3.551c0.06-0.097,0.118-0.192,0.178-0.286l1.074,3.711  l17.003,7.43c0.067-0.496-0.022-0.989-0.232-1.426c0.214,0.047,0.429,0.075,0.642,0.075c1.164,0,2.271-0.682,2.759-1.82  C55.367,43.169,54.661,41.406,53.138,40.753z"></path><circle cx="62.125" cy="35.436" r="6.421"></circle><g><path d="M54.021,86.332c-0.828,0-1.5-0.671-1.5-1.5V58.568c-0.129-0.314-0.4-0.764-0.694-0.835c-0.367-0.09-1.27,0.278-2.563,1.625   c-0.573,0.599-1.524,0.616-2.121,0.043c-0.598-0.573-0.617-1.523-0.043-2.121c1.966-2.048,3.807-2.873,5.466-2.455   c2.137,0.54,2.829,2.834,2.9,3.094l0.055,0.196v26.716C55.521,85.661,54.85,86.332,54.021,86.332z"></path></g><path d="M89.072,66.497c0.877-15.452-7.434-24.23-12.483-26.981l-1.022-0.48c-3.53-1.576-7.669,0.01-9.245,3.54  c-0.273,0.612-0.445,1.243-0.535,1.876l-3.089,5.111l-8.299-5.83c-1.355-0.953-3.228-0.625-4.18,0.73  c-0.952,1.356-0.625,3.227,0.73,4.179l8.102,5.691c-1.498,0.343-3.195,0.449-5.115,0.193c-1.637-0.216-3.151,0.934-3.371,2.576  c-0.22,1.642,0.934,3.151,2.576,3.371c1.007,0.134,1.977,0.198,2.911,0.198c7.198,0,12.245-3.759,15.273-7.609  c1.522,1.605,3.577,4.787,3.784,10.271l-10.682,7.796c-0.978,0.713-1.517,1.881-1.427,3.087s0.797,2.281,1.869,2.842l2.123,1.109  c-0.021,0.201-0.03,0.404-0.015,0.609c0.09,1.207,0.797,2.281,1.869,2.842l14.76,7.714c0.518,0.271,1.072,0.398,1.618,0.398  c1.262,0,2.48-0.684,3.104-1.879c0.896-1.713,0.232-3.828-1.48-4.723l-2.122-1.109c0.138-1.38-0.552-2.769-1.856-3.451l-3.809-1.991  l5.288-3.861C86.962,71.821,88.906,69.423,89.072,66.497z"></path></svg>