<?xml version="1.0" encoding="UTF-8"?>
<svg width="20px" height="18px" viewBox="0 0 20 18" version="1.1" xmlns="http://www.w3.org/2000/svg" xmlns:xlink="http://www.w3.org/1999/xlink">
    <!-- Generator: Sketch 53.2 (72643) - https://sketchapp.com -->
    <title>home-heart-solid</title>
    <desc>Created with Sketch.</desc>
    <g id="Mobile" stroke="none" stroke-width="1" fill="none" fill-rule="evenodd">
        <g id="Helper-/-menu" transform="translate(-18.000000, -207.000000)" fill="#12B3B3" fill-rule="nonzero">
            <g id="home-heart-solid" transform="translate(18.000000, 207.000000)">
                <path d="M2.22555542,10.9473119 L2.22555542,17.4374725 C2.22555542,17.7468626 2.47550407,18 2.78099687,18 L17.2224746,18 C17.5279674,18 17.7779161,17.7468626 17.7779161,17.4374725 L17.7779161,10.9473119 C17.545325,10.7539431 16.2261515,9.60076176 10.0017358,4.04228722 C3.74954791,9.62888813 2.447732,10.7609747 2.22555542,10.9473119 Z M13.1295654,10.0226574 C14.0877019,10.8312906 14.1397746,12.2797988 13.2857833,13.1552322 L10.3454152,16.1647541 C10.1544822,16.358123 9.84898936,16.358123 9.65805636,16.1647541 L6.71768817,13.1552322 C5.86369693,12.2797988 5.91229806,10.8312906 6.86696306,10.0226574 C7.70012524,9.31949802 8.93945398,9.4460667 9.69971446,10.2265736 L9.99826425,10.5324479 L10.296814,10.2265736 C11.060546,9.4460667 12.2998748,9.31949802 13.1295654,10.0226574 L13.1295654,10.0226574 Z M2.28389731,10.9616477 L2.28389731,10.9367645 C2.28389731,10.9367645 2.05889731,11.1441245 2.28389731,10.9616477 Z M19.8156919,8.30694858 L17.7779161,6.48576591 L17.7779161,1.68670345 C17.7779161,1.37731335 17.5279674,1.12417599 17.2224746,1.12417599 L15.0007088,1.12417599 C14.695216,1.12417599 14.4452674,1.37731335 14.4452674,1.68670345 L14.4452674,3.50437033 L10.9286287,0.361248108 C10.3974878,-0.120416036 9.60251221,-0.120416036 9.07137132,0.361248108 L0.184308083,8.30694858 C-0.0448115159,8.51438058 -0.0621690613,8.86947605 0.142649974,9.10151863 L0.885552917,9.93827824 C1.09037195,10.1703208 1.44099437,10.1878998 1.67011397,9.9804678 L9.63375579,2.87152693 C9.84204634,2.68518971 10.1579537,2.68518971 10.3697157,2.87152693 L18.329886,9.98398359 C18.5590056,10.1914156 18.909628,10.1738366 19.1144471,9.94179403 L19.85735,9.10503443 C20.0621691,8.86947605 20.0448115,8.51438058 19.8156919,8.30694858 L19.8156919,8.30694858 Z M17.7779161,10.9367645 L17.7779161,10.9607674 C18.0029161,11.1447896 17.7779161,10.9367645 17.7779161,10.9367645 Z" id="Shape"></path>
            </g>
        </g>
    </g>
</svg>