<?xml version="1.0" encoding="UTF-8"?>
<svg width="13px" height="18px" viewBox="0 0 13 18" version="1.1" xmlns="http://www.w3.org/2000/svg" xmlns:xlink="http://www.w3.org/1999/xlink">
    <!-- Generator: Sketch 53.2 (72643) - https://sketchapp.com -->
    <title>file-medical-solid</title>
    <desc>Created with Sketch.</desc>
    <g id="Mobile" stroke="none" stroke-width="1" fill="none" fill-rule="evenodd">
        <g id="Helper-/-menu" transform="translate(-22.000000, -351.000000)" fill="#12B3B3" fill-rule="nonzero">
            <g id="file-medical-solid" transform="translate(22.000000, 351.000000)">
                <path d="M12.7630208,3.69140625 L9.44869792,0.24609375 C9.29635417,0.087890625 9.08984375,0 8.87317708,0 L8.66666667,0 L8.66666667,4.5 L13,4.5 L13,4.28554687 C13,4.0640625 12.9153646,3.84960937 12.7630208,3.69140625 Z M7.58333333,4.78125 L7.58333333,0 L0.8125,0 C0.362239583,0 0,0.376171875 0,0.84375 L0,17.15625 C0,17.6238281 0.362239583,18 0.8125,18 L12.1875,18 C12.6377604,18 13,17.6238281 13,17.15625 L13,5.625 L8.39583333,5.625 C7.94895833,5.625 7.58333333,5.2453125 7.58333333,4.78125 Z M9.75,10.40625 L9.75,12.09375 C9.75,12.2484375 9.628125,12.375 9.47916667,12.375 L7.58333333,12.375 L7.58333333,14.34375 C7.58333333,14.4984375 7.46145833,14.625 7.3125,14.625 L5.6875,14.625 C5.53854167,14.625 5.41666667,14.4984375 5.41666667,14.34375 L5.41666667,12.375 L3.52083333,12.375 C3.371875,12.375 3.25,12.2484375 3.25,12.09375 L3.25,10.40625 C3.25,10.2515625 3.371875,10.125 3.52083333,10.125 L5.41666667,10.125 L5.41666667,8.15625 C5.41666667,8.0015625 5.53854167,7.875 5.6875,7.875 L7.3125,7.875 C7.46145833,7.875 7.58333333,8.0015625 7.58333333,8.15625 L7.58333333,10.125 L9.47916667,10.125 C9.628125,10.125 9.75,10.2515625 9.75,10.40625 Z" id="Shape"></path>
            </g>
        </g>
    </g>
</svg>